<svg width="48" height="48" viewBox="0 0 48 48" fill="none" xmlns="http://www.w3.org/2000/svg">
<g clip-path="url(#clip0_1310_7434)">
<rect width="48" height="48" rx="8" fill="#DD4757"/>
<path d="M21.5567 29.8101C22.2973 29.9409 23.0592 30.0066 23.8375 30.0001C30.8045 29.946 36.4769 24.1086 36.4759 16.9971C36.4746 9.81431 30.7655 3.99312 23.726 4.00005C16.7033 4.00652 10.9689 9.89198 11.0001 17.0595C11.0169 20.8894 12.6572 24.3292 15.2546 26.6967L15.3837 26.6658C16.2757 26.4499 16.9062 25.6366 16.9062 24.7013L16.909 24.6976C16.908 24.6976 16.9071 24.6967 16.9062 24.6967C14.8306 22.7757 13.5364 19.9948 13.5632 16.9046C13.613 11.2725 18.1207 6.66908 23.6391 6.61591C29.3291 6.56089 33.9541 11.2734 33.9125 17.077C33.8721 22.6967 29.3925 27.3038 23.8873 27.3838C23.0864 27.3953 22.3064 27.3116 21.5567 27.1447V22.183C22.247 22.5094 23.0148 22.6925 23.8252 22.6925C26.8095 22.6925 29.229 20.2232 29.229 17.1774C29.229 14.1325 26.8095 11.6636 23.8252 11.6636C20.8409 11.6636 18.4219 14.1325 18.4219 17.1774C18.4219 18.2828 18.7413 19.3106 19.2899 20.1742V38.9688C19.2496 40.3119 19.6876 41.6725 20.6217 42.7646C22.5849 45.0568 25.9982 45.2912 28.2451 43.287C29.4673 42.1973 30.0924 40.6702 30.0933 39.1348V39.132V32.0801C29.7635 31.8207 29.3622 31.6908 28.9617 31.6908C28.5622 31.6908 28.1622 31.8207 27.8306 32.0801V34.646V39.0849V39.1348H27.8315C27.8306 40.0271 27.4668 40.9143 26.7565 41.5482C25.4497 42.7128 23.4665 42.5778 22.3254 41.244C21.8289 40.6647 21.573 39.955 21.5508 39.2407L21.5567 38.9129V34.6419V29.8101Z" fill="white"/>
</g>
<defs>
<clipPath id="clip0_1310_7434">
<rect width="48" height="48" fill="white"/>
</clipPath>
</defs>
</svg>
